<svg id="Layer_1" data-name="Layer 1" xmlns="http://www.w3.org/2000/svg" viewBox="0 0 180.67 176.67"><defs><style>.cls-1{fill:#e85c51;}.cls-2{fill:#fff;stroke:#fff;stroke-miterlimit:10;stroke-width:0.5px;}</style></defs><title>Artboard 1</title><circle class="cls-1" cx="90.33" cy="88.33" r="73.29"/><path class="cls-2" d="M148.55,117.77h0c-.41,0-10-.47-14.26-9.29l-.3-.62a31.13,31.13,0,0,1-2-4.56.78.78,0,1,1,1.51-.37,35,35,0,0,0,1.86,4.25c.13.25.23.46.31.63,3.15,6.56,9.81,8,12.11,8.32V60.93l-55.7,27.4,10.39,5.12c7,3.44,15.35-9,15.44-9.12a.77.77,0,0,1,1.07-.21.76.76,0,0,1,.22,1.07,36.16,36.16,0,0,1-5.45,6.26c-4.37,3.92-8.5,5.09-12,3.39L90,89a.78.78,0,0,1,0-1.39L148.21,59a.78.78,0,0,1,1.12.7V117a.79.79,0,0,1-.78.78Z"/><path class="cls-2" d="M124.79,104.37a3.52,3.52,0,0,1-1.65-.39,3.28,3.28,0,0,1-1.69-2.15c-.43-1.58-.09-3.85,1-6.76-2.2,2.37-4.81,4.51-7,4.51a3,3,0,0,1-1.44-.35c-1-.51-2-1.71-1.45-4.55a.78.78,0,1,1,1.52.31c-.46,2.29.37,2.72.64,2.86,1.37.71,3.78-.71,6.79-4A53.31,53.31,0,0,0,126,88.07a.78.78,0,0,1,1.07-.23.77.77,0,0,1,.24,1.07c-1.49,2.41-5.18,9.37-4.32,12.51a1.77,1.77,0,0,0,.91,1.18c2.1,1.09,6.48-2.22,9.26-6,2-2.78,2.87-5.32,2-6.16a1.09,1.09,0,0,0-1.44-.32c-1.17.64-2.19,3-1.73,5.17a.78.78,0,0,1-1.52.33c-.56-2.63.61-5.83,2.51-6.87a2.64,2.64,0,0,1,3.28.59c1.49,1.49.78,4.55-1.88,8.18a22.74,22.74,0,0,1-5.41,5.3A7.85,7.85,0,0,1,124.79,104.37Z"/><path class="cls-2" d="M32.12,117.77a.77.77,0,0,1-.78-.78V59.68a.78.78,0,0,1,1.12-.7L90.7,87.64a.78.78,0,0,1,0,1.39L73,97.72a7.3,7.3,0,0,1-1.06.42c-16.89,5.12-23.08-.91-25-3.74A8.64,8.64,0,0,1,45.76,88a6.26,6.26,0,0,1,6.74-5,6.52,6.52,0,0,1,6.21,6,22.16,22.16,0,0,1-.53,7.17.78.78,0,0,1-1.51-.37,20.76,20.76,0,0,0,.49-6.67,4.93,4.93,0,0,0-4.76-4.59,4.71,4.71,0,0,0-5.12,3.81,7.07,7.07,0,0,0,1,5.26c1.67,2.52,7.31,7.9,23.2,3.09a4.4,4.4,0,0,0,.82-.33l16.24-8-55.7-27.4V116a49.78,49.78,0,0,0,8-3c4.38-2.08,10.21-5.73,13.18-11.26a.78.78,0,0,1,1.37.74c-3.17,5.91-9.31,9.75-13.91,11.94a50,50,0,0,1-9.26,3.36Z"/></svg>