<?xml version="1.0" encoding="utf-8"?>
<!-- Generator: Adobe Illustrator 19.2.1, SVG Export Plug-In . SVG Version: 6.00 Build 0)  -->
<svg version="1.1" xmlns="http://www.w3.org/2000/svg" xmlns:xlink="http://www.w3.org/1999/xlink" x="0px" y="0px"
	 viewBox="0 0 200 200" style="enable-background:new 0 0 200 200;" xml:space="preserve">
<g id="napkin">
</g>
<g id="facebook">
	<path d="M124.1,100h-15.8v56.3H85V100H73.8V80.2H85V67.3c0-9.2,4.4-23.6,23.6-23.6l17.3,0.1v19.3h-12.6c-2.1,0-5,1-5,5.4v11.7h17.8
		L124.1,100z"/>
	<g>
		<path d="M100,14.6c47.1,0,85.4,38.3,85.4,85.4s-38.3,85.4-85.4,85.4S14.6,147.1,14.6,100S52.9,14.6,100,14.6 M100,3
			C46.4,3,3,46.4,3,100s43.4,97,97,97s97-43.4,97-97S153.6,3,100,3L100,3z"/>
	</g>
</g>
<g id="insta">
</g>
<g id="twitter">
</g>
<g id="pinterest">
</g>
</svg>
