<?xml version="1.0" encoding="utf-8"?>
<!-- Generator: Adobe Illustrator 19.2.1, SVG Export Plug-In . SVG Version: 6.00 Build 0)  -->
<svg version="1.1" xmlns="http://www.w3.org/2000/svg" xmlns:xlink="http://www.w3.org/1999/xlink" x="0px" y="0px"
	 viewBox="0 0 200 200" style="enable-background:new 0 0 200 200;" xml:space="preserve">
<g id="napkin">
</g>
<g id="facebook">
</g>
<g id="insta">
	<g>
		<path d="M127.9,43.7H72.1c-15.7,0-28.4,12.8-28.4,28.4v55.8c0,15.7,12.8,28.4,28.4,28.4h55.8c15.7,0,28.4-12.7,28.4-28.4V72.1
			C156.3,56.4,143.6,43.7,127.9,43.7z M144.1,127.9c0,8.9-7.3,16.2-16.2,16.2H72.1c-8.9,0-16.2-7.3-16.2-16.2V72.1
			c0-8.9,7.2-16.2,16.2-16.2h55.8c8.9,0,16.2,7.2,16.2,16.2V127.9z"/>
		<path d="M130,77c-3.8,0-6.9-3.1-6.9-6.9c0-3.8,3.1-6.9,6.9-6.9c3.8,0,6.9,3.1,6.9,6.9C136.8,73.9,133.7,77,130,77L130,77z"/>
		<path d="M100,71c-16,0-29,13-29,29c0,16,13,29,29,29c16,0,29-13,29-29C129,84,116,71,100,71z M100,116.8
			c-9.2,0-16.8-7.5-16.8-16.8c0-9.2,7.5-16.8,16.8-16.8c9.2,0,16.8,7.5,16.8,16.8C116.8,109.2,109.2,116.8,100,116.8z"/>
	</g>
	<g>
		<path d="M100,14.6c47.1,0,85.4,38.3,85.4,85.4s-38.3,85.4-85.4,85.4S14.6,147.1,14.6,100S52.9,14.6,100,14.6 M100,3
			C46.4,3,3,46.4,3,100s43.4,97,97,97s97-43.4,97-97S153.6,3,100,3L100,3z"/>
	</g>
</g>
<g id="twitter">
</g>
<g id="pinterest">
</g>
</svg>
