<?xml version="1.0" encoding="utf-8"?>
<!-- Generator: Adobe Illustrator 19.2.1, SVG Export Plug-In . SVG Version: 6.00 Build 0)  -->
<svg version="1.1" xmlns="http://www.w3.org/2000/svg" xmlns:xlink="http://www.w3.org/1999/xlink" x="0px" y="0px"
	 viewBox="0 0 200 200" style="enable-background:new 0 0 200 200;" xml:space="preserve">
<g id="napkin">
</g>
<g id="facebook">
</g>
<g id="insta">
</g>
<g id="twitter">
</g>
<g id="pinterest">
	<path d="M107.3,125.4c-6.9-0.5-9.7-3.9-15.1-7.2c-3,15.5-6.6,30.4-17.3,38.1c-3.3-23.4,4.8-41.1,8.6-59.7
		C77.1,85.7,84.3,63.8,98,69.2c16.8,6.6-14.5,40.4,6.5,44.6c21.9,4.4,30.9-38,17.3-51.8c-19.6-19.9-57.2-0.5-52.5,28.1
		c1.1,7,8.3,9.1,2.9,18.7C59.5,106,55.7,96.1,56.2,82.9C57,61.3,75.6,46.1,94.4,44c23.7-2.6,45.9,8.7,49,31
		C146.8,100.1,132.6,127.3,107.3,125.4L107.3,125.4z M107.3,125.4"/>
	<g>
		<path d="M100,14.6c47.1,0,85.4,38.3,85.4,85.4s-38.3,85.4-85.4,85.4c-47.1,0-85.4-38.3-85.4-85.4S52.9,14.6,100,14.6 M100,3
			C46.4,3,3,46.4,3,100s43.4,97,97,97c53.6,0,97-43.4,97-97S153.6,3,100,3L100,3z"/>
	</g>
</g>
</svg>
