<?xml version="1.0" encoding="utf-8"?>
<!-- Generator: Adobe Illustrator 19.2.1, SVG Export Plug-In . SVG Version: 6.00 Build 0)  -->
<svg version="1.1" xmlns="http://www.w3.org/2000/svg" xmlns:xlink="http://www.w3.org/1999/xlink" x="0px" y="0px"
	 viewBox="0 0 200 200" style="enable-background:new 0 0 200 200;" xml:space="preserve">
<g id="napkin">
</g>
<g id="facebook">
</g>
<g id="insta">
</g>
<g id="twitter">
	<path d="M160.8,66.8c-4.5,2-9.3,3.3-14.3,3.9c5.1-3.1,9.1-8,11-13.8c-4.8,2.9-10.2,4.9-15.8,6c-4.5-4.8-11-7.9-18.2-7.9
		c-13.8,0-24.9,11.2-24.9,24.9c0,2,0.2,3.9,0.6,5.7c-20.7-1-39.1-11-51.4-26.1c-2.2,3.7-3.4,8-3.4,12.5c0,8.7,4.4,16.3,11.1,20.8
		c-4.1-0.1-7.9-1.3-11.3-3.1c0,0.1,0,0.2,0,0.3c0,12.1,8.6,22.2,20,24.4c-2.1,0.6-4.3,0.9-6.6,0.9c-1.6,0-3.2-0.2-4.7-0.4
		c3.2,9.9,12.4,17.1,23.3,17.3c-8.5,6.7-19.3,10.7-31,10.7c-2,0-4-0.1-5.9-0.3c11,7.1,24.1,11.2,38.2,11.2c45.9,0,71-38,71-71
		c0-1.1,0-2.2-0.1-3.2C153.2,76.2,157.4,71.8,160.8,66.8L160.8,66.8z M160.8,66.8"/>
	<g>
		<path d="M100,14.6c47.1,0,85.4,38.3,85.4,85.4s-38.3,85.4-85.4,85.4S14.6,147.1,14.6,100S52.9,14.6,100,14.6 M100,3
			C46.4,3,3,46.4,3,100s43.4,97,97,97s97-43.4,97-97S153.6,3,100,3L100,3z"/>
	</g>
</g>
<g id="pinterest">
</g>
</svg>
